# xmcd CD database file
#
# Track frame offsets:
#	150
#	22863
#	33870
#	50134
#	70733
#	87489
#	106674
#	137646
#	152976
#
# Disc length: 2428 seconds
#
# Revision: 0
# Processed by: cddbd v1.5.1PL2 Copyright (c) Steve Scherf et al.
# Submitted via: CDex 1.51
#
DISCID=6d097a09
DTITLE=Iggy Pop - Lust For Life
DYEAR=1900
DGENRE=Rock
TTITLE0=Lust For Life
TTITLE1=Sixteen
TTITLE2=Some Weird Sin
TTITLE3=The Passenger
TTITLE4=Tonight
TTITLE5=Success
TTITLE6=Turn Blue
TTITLE7=Neighborhood Threat
TTITLE8=Fall In Love With Me
EXTD=
EXTT0=
EXTT1=
EXTT2=
EXTT3=
EXTT4=
EXTT5=
EXTT6=
EXTT7=
EXTT8=
PLAYORDER=
